<?xml version="1.0" encoding="utf-8"?>
<!-- Generator: Adobe Illustrator 16.2.0, SVG Export Plug-In . SVG Version: 6.00 Build 0)  -->
<svg version="1.2" baseProfile="tiny" id="Слой_1"
	 xmlns="http://www.w3.org/2000/svg" xmlns:xlink="http://www.w3.org/1999/xlink" x="0px" y="0px" width="50px" height="50px"
	 viewBox="0 0 50 50" xml:space="preserve">
<rect x="6.875" y="6.875" fill="none" stroke="#CC3517" stroke-width="3" stroke-miterlimit="10" width="36.25" height="36.25"/>
<path fill="#CC3517" d="M35.875,33.875c0,1.1-0.9,2-2,2h-17.75c-1.1,0-2-0.9-2-2v-17.75c0-1.1,0.9-2,2-2h17.75c1.1,0,2,0.9,2,2
	V33.875z"/>
<circle fill="#CC3517" cx="11.875" cy="11.875" r="1.729"/>
<circle fill="#CC3517" cx="38.313" cy="11.875" r="1.729"/>
<circle fill="#CC3517" cx="11.875" cy="38.438" r="1.729"/>
<circle fill="#CC3517" cx="38.313" cy="38.438" r="1.729"/>
<rect x="8.726" y="43.979" fill="#CC3517" width="2.958" height="5.208"/>
<rect x="14.644" y="43.979" fill="#CC3517" width="2.959" height="5.208"/>
<rect x="20.562" y="43.979" fill="#CC3517" width="2.959" height="5.208"/>
<rect x="26.479" y="43.979" fill="#CC3517" width="2.959" height="5.208"/>
<rect x="32.397" y="43.979" fill="#CC3517" width="2.959" height="5.208"/>
<rect x="38.315" y="43.979" fill="#CC3517" width="2.959" height="5.208"/>
<rect x="8.726" y="0.813" fill="#CC3517" width="2.958" height="5.208"/>
<rect x="14.644" y="0.813" fill="#CC3517" width="2.959" height="5.208"/>
<rect x="20.562" y="0.813" fill="#CC3517" width="2.959" height="5.208"/>
<rect x="26.479" y="0.813" fill="#CC3517" width="2.959" height="5.208"/>
<rect x="32.397" y="0.813" fill="#CC3517" width="2.959" height="5.208"/>
<rect x="38.315" y="0.813" fill="#CC3517" width="2.959" height="5.208"/>
<rect x="44.041" y="8.267" fill="#CC3517" width="5.208" height="2.958"/>
<rect x="44.041" y="14.185" fill="#CC3517" width="5.208" height="2.959"/>
<rect x="44.041" y="20.103" fill="#CC3517" width="5.208" height="2.959"/>
<rect x="44.041" y="26.021" fill="#CC3517" width="5.208" height="2.959"/>
<rect x="44.041" y="31.938" fill="#CC3517" width="5.208" height="2.959"/>
<rect x="44.041" y="37.856" fill="#CC3517" width="5.208" height="2.959"/>
<rect x="0.75" y="8.267" fill="#CC3517" width="5.208" height="2.958"/>
<rect x="0.75" y="14.185" fill="#CC3517" width="5.208" height="2.959"/>
<rect x="0.75" y="20.103" fill="#CC3517" width="5.208" height="2.959"/>
<rect x="0.75" y="26.021" fill="#CC3517" width="5.208" height="2.959"/>
<rect x="0.75" y="31.938" fill="#CC3517" width="5.208" height="2.959"/>
<rect x="0.75" y="37.856" fill="#CC3517" width="5.208" height="2.959"/>
</svg>
