<?xml version="1.0" encoding="utf-8"?>
<!-- Generator: Adobe Illustrator 16.2.0, SVG Export Plug-In . SVG Version: 6.00 Build 0)  -->
<svg version="1.2" baseProfile="tiny" id="Слой_1"
	 xmlns="http://www.w3.org/2000/svg" xmlns:xlink="http://www.w3.org/1999/xlink" x="0px" y="0px" width="50px" height="50px"
	 viewBox="0 0 50 50" xml:space="preserve">
<path fill="#FFFFFF" d="M36.17,7c-2.8,0-5.2,1.63-6.32,4h-10.2c-0.68-1.46-1.86-2.64-3.32-3.32V0h-6v7.68c-2.36,1.12-4,3.53-4,6.32
	c0,3.87,3.14,7,7,7c2.8,0,5.2-1.63,6.32-4h10.2c1.12,2.37,3.521,4,6.32,4c3.86,0,7-3.13,7-7S40.03,7,36.17,7z M13.33,17.33
	c-1.75,0-3.16-1.41-3.16-3.16S11.58,11,13.33,11s3.17,1.42,3.17,3.17S15.08,17.33,13.33,17.33z M36.17,17.33
	c-1.75,0-3.17-1.41-3.17-3.16S34.42,11,36.17,11s3.16,1.42,3.16,3.17S37.92,17.33,36.17,17.33z"/>
<path fill="#FFFFFF" d="M36.17,29c-2.8,0-5.2,1.63-6.32,4H21.89l-0.06,0.07L8.08,50h7.73l8.94-11h5.1c1.12,2.37,3.521,4,6.32,4
	c3.86,0,7-3.13,7-7S40.03,29,36.17,29z M36.17,39.17C34.42,39.17,33,37.75,33,36s1.42-3.17,3.17-3.17s3.16,1.42,3.16,3.17
	S37.92,39.17,36.17,39.17z"/>
<polygon fill="#FFFFFF" points="21.89,33 21.83,33.07 21.83,33 "/>
</svg>
