<?xml version="1.0" encoding="utf-8"?>
<!-- Generator: Adobe Illustrator 16.2.0, SVG Export Plug-In . SVG Version: 6.00 Build 0)  -->
<svg version="1.2" baseProfile="tiny" id="Слой_1"
	 xmlns="http://www.w3.org/2000/svg" xmlns:xlink="http://www.w3.org/1999/xlink" x="0px" y="0px" width="50px" height="50px"
	 viewBox="0 0 50 50" xml:space="preserve">
<path fill="none" stroke="#000000" stroke-width="2" stroke-miterlimit="10" d="M10.771,9.508"/>
<path fill="#CC3517" d="M35.732,13.07c0,4.81-3.89,8.7-8.689,8.7H0.822v-1.801h26.221c3.8,0,6.89-3.09,6.89-6.899
	c0-3.81-3.09-6.9-6.89-6.9c-1.7,0-3.25,0.61-4.45,1.63l-1.28-1.28c1.53-1.33,3.53-2.14,5.73-2.14
	C31.843,4.38,35.732,8.27,35.732,13.07z"/>
<path fill="#CC3517" d="M49.18,17.815c0,3.71-2.99,6.71-6.69,6.71H0.82v-1.39h41.669c2.931,0,5.311-2.381,5.311-5.32
	c0-2.94-2.38-5.32-5.311-5.32c-1.31,0-2.51,0.471-3.43,1.26l-0.99-0.99c1.181-1.02,2.721-1.649,4.42-1.649
	C46.189,11.115,49.18,14.115,49.18,17.815z"/>
<path fill="#CC3517" d="M43.42,36.016c0,5.59-4.53,10.119-10.12,10.119c-2.561,0-4.89-0.939-6.67-2.49l1.49-1.49
	c1.39,1.18,3.199,1.891,5.18,1.891c4.42,0,8.02-3.59,8.02-8.029c0-4.441-3.6-8.041-8.02-8.041H0.82v-2.1H33.3
	C38.89,25.875,43.42,30.404,43.42,36.016z"/>
</svg>
