<?xml version="1.0" encoding="utf-8"?>
<!-- Generator: Adobe Illustrator 16.2.0, SVG Export Plug-In . SVG Version: 6.00 Build 0)  -->
<!DOCTYPE svg PUBLIC "-//W3C//DTD SVG 1.1//EN" "http://www.w3.org/Graphics/SVG/1.1/DTD/svg11.dtd">
<svg version="1.1" id="Слой_1" xmlns="http://www.w3.org/2000/svg" xmlns:xlink="http://www.w3.org/1999/xlink" x="0px" y="0px"
	 width="50px" height="50px" viewBox="0 0 50 50" enable-background="new 0 0 50 50" xml:space="preserve">
<circle fill="none" stroke="#CC3517" stroke-miterlimit="10" cx="20.862" cy="20.93" r="17.85"/>
<path fill="#CC3517" d="M35.003,31.957l11.251,10.662c0.979,0.977,0.979,2.578-0.01,3.566c-0.979,0.978-2.581,0.979-3.561,0.002
	L32.029,34.932L35.003,31.957z"/>
<path fill="#CC3517" d="M26.001,22.666c0.565,0.549,0.549,1.434,0,1.983c-0.549,0.531-1.434,0.55-1.982,0
	c-0.551-0.549-0.551-1.434,0-1.983C24.567,22.117,25.452,22.099,26.001,22.666z"/>
<path fill="#CC3517" d="M14.049,23.729c0,0.762-0.62,1.398-1.399,1.398c-0.779,0-1.399-0.637-1.399-1.398
	c0-0.779,0.62-1.417,1.399-1.417C13.429,22.312,14.049,22.949,14.049,23.729z"/>
<path fill="#CC3517" d="M20.671,8.835c-0.761,0-1.4,0.62-1.4,1.399c0,0.726,0.567,1.328,1.257,1.381
	c0.054,0.017,0.09,0.017,0.143,0.017c0.053,0,0.088,0,0.141-0.017c0.708-0.053,1.276-0.655,1.276-1.381
	C22.088,9.456,21.45,8.835,20.671,8.835z M20.671,8.835c-0.761,0-1.4,0.62-1.4,1.399c0,0.726,0.567,1.328,1.257,1.381
	c0.054,0.017,0.09,0.017,0.143,0.017c0.053,0,0.088,0,0.141-0.017c0.708-0.053,1.276-0.655,1.276-1.381
	C22.088,9.456,21.45,8.835,20.671,8.835z M36.784,20.275h-7.79v-0.654h7.771c-0.018-0.213-0.033-0.443-0.07-0.656H22.902
	l-5.082,5.082h-3.276c-0.142,0.922-0.938,1.611-1.895,1.611c-1.063,0-1.948-0.867-1.948-1.93c0-1.08,0.885-1.948,1.948-1.948
	c0.957,0,1.735,0.689,1.895,1.612h2.993l5.046-5.047V18.31h14.024c-0.901-5.685-4.746-10.359-9.881-12.413v4.338H26.07V5.648
	c-0.229-0.088-0.477-0.159-0.727-0.23v4.816h-0.672V5.241c-1.221-0.319-2.496-0.479-3.808-0.479
	c-7.596,0-13.936,5.365-15.547,12.555h11.068V13.28h0.672v4.692H5.176c-0.035,0.212-0.071,0.442-0.106,0.656h12.856l2.426-2.444
	V12.13c-0.921-0.142-1.611-0.939-1.611-1.895c0-1.063,0.867-1.931,1.93-1.931c1.08,0,1.947,0.868,1.947,1.931
	c0,0.956-0.689,1.735-1.611,1.895v4.302h-0.036l0.036,0.036l-2.816,2.816l-0.035-0.035v0.053H5
	c-0.036,0.212-0.053,0.442-0.053,0.672h13.776l5.082-5.083h3.276c0.144-0.919,0.938-1.61,1.896-1.61c1.063,0,1.947,0.867,1.947,1.93
	c0,1.08-0.885,1.948-1.947,1.948c-0.955,0-1.734-0.69-1.896-1.611h-2.992l-5.047,5.047v0.036H4.911v0.301
	c0,2.408,0.514,4.693,1.452,6.748h7.295v0.034l5.047,5.047h2.994c0.159-0.92,0.937-1.61,1.894-1.61c1.063,0,1.947,0.867,1.947,1.947
	c0,1.063-0.885,1.93-1.947,1.93c-0.957,0-1.735-0.689-1.894-1.594h-3.33v-0.053L13.34,28.35H6.699
	c1.505,2.992,3.931,5.438,6.889,6.959v-2.371h-1.629v-0.674h2.285v3.383c0.212,0.105,0.442,0.193,0.655,0.283v-3.578h0.655v3.825
	c1.665,0.603,3.453,0.921,5.312,0.921c2.675,0,5.188-0.673,7.401-1.843v-7.879l-2.158-2.16c-0.764,0.566-1.808,0.478-2.463-0.195
	c-0.761-0.743-0.761-1.983-0.018-2.744c0.762-0.762,2-0.745,2.765,0c0.653,0.673,0.743,1.718,0.192,2.479l2.338,2.355l-0.054,0.053
	h0.054v7.72c4.729-2.813,7.897-8.004,7.897-13.954C36.82,20.717,36.82,20.487,36.784,20.275z M28.977,16.628
	c0.778,0,1.399-0.638,1.399-1.417c0-0.762-0.621-1.399-1.399-1.399c-0.779,0-1.398,0.637-1.398,1.399
	C27.577,15.99,28.195,16.628,28.977,16.628z M20.671,8.835c-0.761,0-1.4,0.62-1.4,1.399c0,0.726,0.567,1.328,1.257,1.381
	c0.054,0.017,0.09,0.017,0.143,0.017c0.053,0,0.088,0,0.141-0.017c0.708-0.053,1.276-0.655,1.276-1.381
	C22.088,9.456,21.45,8.835,20.671,8.835z M20.671,8.835c-0.761,0-1.4,0.62-1.4,1.399c0,0.726,0.567,1.328,1.257,1.381
	c0.054,0.017,0.09,0.017,0.143,0.017c0.053,0,0.088,0,0.141-0.017c0.708-0.053,1.276-0.655,1.276-1.381
	C22.088,9.456,21.45,8.835,20.671,8.835z M20.671,8.835c-0.761,0-1.4,0.62-1.4,1.399c0,0.726,0.567,1.328,1.257,1.381
	c0.054,0.017,0.09,0.017,0.143,0.017c0.053,0,0.088,0,0.141-0.017c0.708-0.053,1.276-0.655,1.276-1.381
	C22.088,9.456,21.45,8.835,20.671,8.835z"/>
<path fill="#FFFFFF" d="M20.813,11.616c-0.053,0.017-0.088,0.017-0.141,0.017c-0.053,0-0.089,0-0.143-0.017H20.813z"/>
<polygon fill="#FFFFFF" points="23.805,14.891 23.77,14.927 23.77,14.891 "/>
<polygon fill="#FFFFFF" points="17.855,24.012 17.855,24.047 17.82,24.047 "/>
<polygon fill="#FFFFFF" points="18.421,33.432 18.369,33.432 18.369,33.379 "/>
<circle fill="#CC3517" cx="23.612" cy="33.122" r="1.396"/>
</svg>
