<?xml version="1.0" encoding="utf-8"?>
<!-- Generator: Adobe Illustrator 16.2.0, SVG Export Plug-In . SVG Version: 6.00 Build 0)  -->
<!DOCTYPE svg PUBLIC "-//W3C//DTD SVG 1.1//EN" "http://www.w3.org/Graphics/SVG/1.1/DTD/svg11.dtd">
<svg version="1.1" id="Слой_1" xmlns="http://www.w3.org/2000/svg" xmlns:xlink="http://www.w3.org/1999/xlink" x="0px" y="0px"
	 width="50px" height="50px" viewBox="0 0 50 50" enable-background="new 0 0 50 50" xml:space="preserve">
<path fill="#FFFFFF" d="M24.029,5.119c-0.778-0.778-2.285-1.185-3.348-0.905L9.569,7.137C8.506,7.417,7.407,8.516,7.128,9.58
	L4.212,20.69c-0.279,1.064,0.129,2.571,0.907,3.349l20.842,20.842c0.777,0.777,2.051,0.777,2.829,0l16.09-16.082
	c0.778-0.777,0.778-2.051,0.001-2.828L24.029,5.119z M13.715,13.726c-0.95,0.949-2.49,0.949-3.44,0c-0.96-0.961-0.96-2.5-0.01-3.451
	c0.95-0.949,2.5-0.949,3.45,0C14.675,11.235,14.675,12.774,13.715,13.726z M19.315,31.785c-2.28,0-4.13-1.852-4.13-4.12
	c0-2.28,1.85-4.131,4.13-4.131c2.28,0,4.12,1.851,4.12,4.131C23.435,29.936,21.595,31.785,19.315,31.785z M28.564,32.195
	c0,1.1-0.592,2-1.314,2s-1.314-0.9-1.314-2v-9.07c0-1.1,0.592-2,1.314-2c0.725,0,1.314,0.9,1.314,2V32.195z M35.186,31.785
	c-2.271,0-4.119-1.852-4.119-4.12c0-2.28,1.85-4.131,4.119-4.131c2.279,0,4.131,1.851,4.131,4.131
	C39.314,29.936,37.465,31.785,35.186,31.785z"/>
<path fill="none" stroke="#010202" stroke-miterlimit="10" d="M20.032,7.755"/>
<path fill="none" stroke="#FFFFFF" stroke-width="2" stroke-miterlimit="10" d="M28.141,41.984l-14.067,3.32
	c-1.07,0.252-2.153-0.416-2.406-1.486L7.014,24.107"/>
<path fill="#FFFFFF" d="M21.296,27.662c0,1.094-0.887,1.984-1.985,1.984s-1.988-0.892-1.988-1.984c0-1.098,0.89-1.988,1.988-1.988
	S21.296,26.564,21.296,27.662z"/>
<path fill="#FFFFFF" d="M37.178,27.662c0,1.094-0.888,1.984-1.985,1.984s-1.987-0.892-1.987-1.984c0-1.098,0.89-1.988,1.987-1.988
	S37.178,26.564,37.178,27.662z"/>
</svg>
