<?xml version="1.0" encoding="utf-8"?>
<!-- Generator: Adobe Illustrator 16.2.0, SVG Export Plug-In . SVG Version: 6.00 Build 0)  -->
<!DOCTYPE svg PUBLIC "-//W3C//DTD SVG 1.1//EN" "http://www.w3.org/Graphics/SVG/1.1/DTD/svg11.dtd">
<svg version="1.1" id="Слой_1" xmlns="http://www.w3.org/2000/svg" xmlns:xlink="http://www.w3.org/1999/xlink" x="0px" y="0px"
	 width="50px" height="50px" viewBox="0 0 50 50" enable-background="new 0 0 50 50" xml:space="preserve">
<path fill="#CC3517" d="M1.62,1.62v46.76h46.76V1.62H1.62z M17.5,21.75c-2.73,0-4.94-2.21-4.94-4.94c0-2.72,2.21-4.93,4.94-4.93
	s4.94,2.21,4.94,4.93C22.44,19.54,20.23,21.75,17.5,21.75z M32.44,11.88c2.72,0,4.939,2.21,4.939,4.93c0,2.73-2.22,4.94-4.939,4.94
	c-2.73,0-4.94-2.21-4.94-4.94C27.5,14.09,29.71,11.88,32.44,11.88z M39.85,38.12H29.14c-0.81,0-1.449-0.67-1.449-1.5
	c0-0.84,0.64-1.51,1.449-1.51h10.71c0.811,0,1.46,0.67,1.46,1.51C41.31,37.45,40.66,38.12,39.85,38.12z"/>
<circle fill="#CC3517" cx="17.5" cy="17.063" r="2.063"/>
<circle fill="#CC3517" cx="32.438" cy="17.063" r="2.063"/>
</svg>
