<?xml version="1.0" encoding="utf-8"?>
<!-- Generator: Adobe Illustrator 16.2.0, SVG Export Plug-In . SVG Version: 6.00 Build 0)  -->
<!DOCTYPE svg PUBLIC "-//W3C//DTD SVG 1.1//EN" "http://www.w3.org/Graphics/SVG/1.1/DTD/svg11.dtd">
<svg version="1.1" id="Слой_1" xmlns="http://www.w3.org/2000/svg" xmlns:xlink="http://www.w3.org/1999/xlink" x="0px" y="0px"
	 width="50px" height="50px" viewBox="0 0 50 50" enable-background="new 0 0 50 50" xml:space="preserve">
<path fill="#CC3517" d="M49.1,15.702c0,7.34-5.949,13.279-13.279,13.279S22.55,23.042,22.55,15.702v-0.04l3.72-1.87
	c1.091-0.54,1.461-2,0.841-3.25c-0.58-1.14-1.8-1.73-2.831-1.39c2.28-4.02,6.59-6.72,11.541-6.72
	C43.15,2.432,49.1,8.372,49.1,15.702z"/>
<polygon fill="#CC3517" points="20.14,15.7 20.14,15.71 20.12,15.71 "/>
<path fill="#CC3517" d="M9.256,30.474L7.365,41.379c0,0.006,0,0.006-0.009,0.015c-0.206,1.294-1.421,2.173-2.715,1.967
	c-1.302-0.205-2.18-1.43-1.967-2.716l1.569-10.872L9.256,30.474z"/>
<circle fill="#CC3517" cx="9.808" cy="6.62" r="4.484"/>
<g>
	<path fill="#CC3517" d="M49.301,27.849c0-0.55-0.413-0.821-0.918-0.604L1.618,47.468C1.113,47.686,1.15,47.864,1.7,47.864h46.601
		c0.55,0,1-0.45,1-1V27.849z"/>
</g>
<path fill="#CC3517" d="M25.69,12.92l-5.55,2.78l-0.02,0.01l-7.75,0.93l-1.21,6.75l3.95,0.51c1.24,0.15,2.15,1.18,2.22,2.38v0.01
	l0.1,10.12c0.01,1.41-1.11,2.56-2.52,2.57c-1.4,0.01-2.54-1.11-2.56-2.511c0-0.06-0.01-0.109,0-0.17l-0.09-7.64l-2.01-0.26
	l-1.2-0.15l-1.97-0.28L4.76,27.65l-0.4-0.061c-0.67-0.1-1.12-0.79-1.01-1.55l1.12-12.91c0.11-0.77,0.74-1.3,1.41-1.2l6.57,0.95h0.02
	l6.8-0.33l4.99-2.5c0.68-0.35,1.56,0.02,1.96,0.81C26.62,11.65,26.38,12.57,25.69,12.92z"/>
</svg>
