<?xml version="1.0" encoding="utf-8"?>
<!-- Generator: Adobe Illustrator 16.2.0, SVG Export Plug-In . SVG Version: 6.00 Build 0)  -->
<svg version="1.2" baseProfile="tiny" id="Слой_1"
	 xmlns="http://www.w3.org/2000/svg" xmlns:xlink="http://www.w3.org/1999/xlink" x="0px" y="0px" width="50px" height="50px"
	 viewBox="0 0 50 50" xml:space="preserve">
<path fill="#CC3517" d="M8.15,6.394c-0.275,0-0.5,0.225-0.5,0.5v24.871c0,0.275,0.225,0.5,0.5,0.5h33.7c0.275,0,0.5-0.225,0.5-0.5
	V6.894c0-0.275-0.225-0.5-0.5-0.5H8.15z M38.99,28.564c0,0.275-0.225,0.5-0.5,0.5H11.51c-0.275,0-0.5-0.225-0.5-0.5v-18.47
	c0-0.275,0.225-0.5,0.5-0.5h8.94c0.275,0,0.502,0.002,0.505,0.005c0.003,0.002,0.164,0.164,0.358,0.358l1.853,1.853
	c0.194,0.194,0.579,0.354,0.854,0.354h14.47c0.275,0,0.5,0.225,0.5,0.5V28.564z M23.24,13.149c0-0.025-0.007-0.038-0.015-0.03
	c-0.008,0.008-0.174-0.144-0.369-0.338l-1.933-1.933c-0.194-0.194-0.579-0.354-0.854-0.354h-7.54c-0.275,0-0.5,0.225-0.5,0.5v16.67
	c0,0.275,0.225,0.5,0.5,0.5h24.93c0.275,0,0.5-0.225,0.5-0.5v-13.97c0-0.275-0.225-0.5-0.5-0.5H23.74
	C23.465,13.194,23.24,13.174,23.24,13.149z M20.477,24.471c0.194,0.194,0.193,0.512-0.002,0.705l-0.018,0.018
	c-0.196,0.193-0.515,0.192-0.709-0.002l-3.433-3.433c-0.194-0.194-0.512-0.514-0.705-0.709l-0.018-0.018
	c-0.193-0.196-0.192-0.515,0.002-0.709l0.013-0.013c0.194-0.194,0.512-0.513,0.707-0.708l3.434-3.442
	c0.194-0.195,0.512-0.195,0.707,0l0.023,0.023c0.194,0.194,0.195,0.513,0,0.708l-3.434,3.442c-0.194,0.195-0.194,0.513,0,0.708
	L20.477,24.471z M29.524,16.857c-0.195-0.194-0.196-0.513-0.004-0.709l0.019-0.018c0.192-0.196,0.51-0.197,0.704-0.002l3.443,3.443
	c0.194,0.194,0.513,0.513,0.707,0.707l0.013,0.013c0.194,0.194,0.194,0.513,0,0.707l-0.013,0.013
	c-0.194,0.194-0.513,0.513-0.707,0.707l-3.443,3.443c-0.194,0.194-0.512,0.193-0.704-0.002l-0.019-0.018
	c-0.192-0.196-0.191-0.515,0.003-0.709l3.443-3.434c0.194-0.194,0.194-0.512-0.001-0.706L29.524,16.857z M26.346,17.036
	c0.129-0.243,0.434-0.337,0.677-0.208l0.025,0.013c0.243,0.128,0.337,0.432,0.208,0.675l-3.602,6.806
	c-0.128,0.243-0.433,0.337-0.676,0.208l-0.025-0.013c-0.243-0.128-0.337-0.432-0.208-0.675L26.346,17.036z"/>
<path fill="#C63A17" d="M19.305,39.697c0-0.012-0.225-0.021-0.5-0.021H3.465c-0.275,0-0.369-0.183-0.208-0.406l4.096-5.697
	c0.161-0.224,0.517-0.406,0.792-0.406h33.699c0.275,0,0.631,0.183,0.792,0.406l4.086,5.688c0.161,0.224,0.067,0.406-0.208,0.406
	H31.186c-0.275,0-0.507,0.002-0.516,0.005s-0.175,0.164-0.368,0.359l-1.295,1.301c-0.193,0.195-0.577,0.354-0.853,0.354h-6.33
	c-0.275,0-0.659-0.159-0.853-0.354l-1.285-1.291c-0.194-0.195-0.359-0.348-0.368-0.34C19.312,39.71,19.305,39.708,19.305,39.697z"/>
<path fill="#C63A17" d="M46.525,40.557c0.275,0,0.5,0.225,0.5,0.5v2.05c0,0.275-0.225,0.5-0.5,0.5H3.465c-0.275,0-0.5-0.225-0.5-0.5
	v-2.03c0-0.275,0.225-0.5,0.5-0.5h14.98c0.275,0,0.659,0.159,0.853,0.354l1.285,1.291c0.194,0.195,0.357,0.359,0.362,0.364
	c0.006,0.006,0.235,0.011,0.51,0.011h7.071c0.275,0,0.5-0.005,0.5-0.011c0-0.005,0.002-0.008,0.005-0.004
	c0.003,0.003,0.163-0.155,0.356-0.351l1.307-1.319c0.193-0.195,0.576-0.355,0.852-0.355H46.525z"/>
<polygon fill="#65B32E" points="19.31,40.024 19.34,40.034 19.31,40.064 "/>
<polygon fill="#7DB928" points="20.96,42.944 20.94,42.944 20.94,42.924 "/>
<polygon fill="#7DB928" points="20.96,9.594 20.96,9.604 20.95,9.594 "/>
</svg>
