<?xml version="1.0" encoding="utf-8"?>
<!-- Generator: Adobe Illustrator 16.2.0, SVG Export Plug-In . SVG Version: 6.00 Build 0)  -->
<!DOCTYPE svg PUBLIC "-//W3C//DTD SVG 1.1//EN" "http://www.w3.org/Graphics/SVG/1.1/DTD/svg11.dtd">
<svg version="1.1" id="Слой_1" xmlns="http://www.w3.org/2000/svg" xmlns:xlink="http://www.w3.org/1999/xlink" x="0px" y="0px"
	 width="50px" height="50px" viewBox="0 0 50 50" enable-background="new 0 0 50 50" xml:space="preserve">
<path fill="#FFFFFF" d="M48.24,1.74h-9.32l0.51,1.24l-2.17,1.44c0.21,1.28,0.2,2.57,0.01,3.81l2.16,1.43l-1.779,4.29l-2.511-0.52
	c-0.729,1.07-1.64,1.99-2.71,2.75l0.5,2.49l-4.27,1.77l-1.4-2.11c-1.29,0.21-2.59,0.21-3.86-0.03l-1.42,2.14l-4.28-1.78l0.5-2.53
	c-1-0.74-1.92-1.65-2.67-2.7l-2.56,0.51L11.2,9.65l2.18-1.45c-0.22-1.27-0.21-2.55-0.03-3.78l-2.14-1.43l0.52-1.25H1.76
	c-0.44,0-0.8,0.37-0.8,0.81v25.97h48.08V2.55C49.04,2.11,48.68,1.74,48.24,1.74z M44.52,27.521H42V25h2.52V27.521z M48.04,27.521
	H45.52V25h2.521V27.521z M48.04,23.97H45.52v-2.52h2.521V23.97z"/>
<path fill="#FFFFFF" d="M0.96,30.46v2.351c0,0.439,0.36,0.8,0.8,0.8h46.48c0.439,0,0.8-0.36,0.8-0.8V30.46H0.96z M27.61,32.78H22.4
	v-1.49h5.21V32.78z"/>
<polygon fill="#FFFFFF" points="32.5,48.26 17.5,48.26 19.583,35.843 30.417,35.843 "/>
<path fill="#FFFFFF" d="M28.97,15.15c-4.87,2.02-10.46-0.29-12.479-5.17c-1.15-2.78-0.89-5.79,0.45-8.24h16.75
	c0.17,0.3,0.319,0.61,0.449,0.93C36.16,7.54,33.85,13.13,28.97,15.15z"/>
</svg>
