<?xml version="1.0" encoding="utf-8"?>
<!-- Generator: Adobe Illustrator 16.2.0, SVG Export Plug-In . SVG Version: 6.00 Build 0)  -->
<svg version="1.2" baseProfile="tiny" id="Слой_1"
	 xmlns="http://www.w3.org/2000/svg" xmlns:xlink="http://www.w3.org/1999/xlink" x="0px" y="0px" width="100px" height="50px"
	 viewBox="0 0 100 50" xml:space="preserve">
<polygon fill="#EC663B" points="4,10.392 6,13.855 2,13.855 "/>
<polygon fill="#CC3517" points="2,13.855 0,10.392 4,10.392 "/>
<polygon fill="#EC663B" points="12,10.392 14,13.855 10,13.855 "/>
<polygon fill="#EC663B" points="10,13.855 8,10.392 12,10.392 "/>
<polygon fill="#CC3517" points="14,13.855 12,10.392 16,10.392 "/>
<polygon fill="#CC3517" points="20,10.392 22,13.855 18,13.855 "/>
<polygon fill="#EC663B" points="18,13.855 16,10.392 20,10.392 "/>
<polygon fill="#CC3517" points="22,13.855 20,10.392 24,10.392 "/>
<polygon fill="#CC3517" points="28,10.392 30,13.855 26,13.855 "/>
<polygon fill="#CC3517" points="26,13.855 24,10.392 28,10.392 "/>
<polygon fill="#CC3517" points="30,13.855 28,10.392 32,10.392 "/>
<polygon fill="#CC3517" points="32,10.392 34,13.855 30,13.855 "/>
<polygon fill="#CC3517" points="36,10.392 38,13.855 34,13.855 "/>
<polygon fill="#CC3517" points="34,13.855 32,10.392 36,10.392 "/>
<polygon fill="#EC663B" points="38,13.855 36,10.392 40,10.392 "/>
<polygon fill="#EC663B" points="44,10.392 46,13.855 42,13.855 "/>
<polygon fill="#CC3517" points="42,13.855 40,10.392 44,10.392 "/>
<polygon fill="#CC3517" points="46,13.855 44,10.392 48,10.392 "/>
<polygon fill="#CC3517" points="48,10.392 50,13.855 46,13.855 "/>
<polygon fill="#EC663B" points="52,10.392 54,13.855 50,13.855 "/>
<polygon fill="#CC3517" points="50,13.855 48,10.392 52,10.392 "/>
<polygon fill="#EC663B" points="56,10.392 58,13.855 54,13.855 "/>
<polygon fill="#EC663B" points="60,10.392 62,13.855 58,13.855 "/>
<polygon fill="#CC3517" points="58,13.855 56,10.392 60,10.392 "/>
<polygon fill="#EC663B" points="62,13.855 60,10.392 64,10.392 "/>
<polygon fill="#EC663B" points="68,10.392 70,13.855 66,13.855 "/>
<polygon fill="#CC3517" points="66,13.855 64,10.392 68,10.392 "/>
<polygon fill="#EC663B" points="70,13.855 68,10.392 72,10.392 "/>
<polygon fill="#CC3517" points="72,10.392 74,13.855 70,13.855 "/>
<polygon fill="#CC3517" points="76,10.392 78,13.855 74,13.855 "/>
<polygon fill="#EC663B" points="74,13.855 72,10.392 76,10.392 "/>
<polygon fill="#CC3517" points="78,13.855 76,10.392 80,10.392 "/>
<polygon fill="#EC663B" points="80,10.392 82,13.855 78,13.855 "/>
<polygon fill="#CC3517" points="82,13.855 80,10.392 84,10.392 "/>
<polygon fill="#EC663B" points="86,13.855 84,10.392 88,10.392 "/>
<polygon fill="#EC663B" points="88,10.392 90,13.855 86,13.855 "/>
<polygon fill="#CC3517" points="92,10.392 94,13.855 90,13.855 "/>
<polygon fill="#CC3517" points="90,13.855 88,10.392 92,10.392 "/>
<polygon fill="#CC3517" points="96,10.392 98,13.855 94,13.855 "/>
<polygon fill="#EC663B" points="100,10.392 102,13.855 98,13.855 "/>
<polygon fill="#EC663B" points="98,13.855 96,10.392 100,10.392 "/>
<polygon fill="#EC663B" points="2,13.855 4,17.319 0,17.319 "/>
<polygon fill="#CC3517" points="6,13.855 8,17.319 4,17.319 "/>
<polygon fill="#EC663B" points="8,17.319 6,13.855 10,13.855 "/>
<polygon fill="#CC3517" points="12,17.319 10,13.855 14,13.855 "/>
<polygon fill="#CC3517" points="14,13.855 16,17.319 12,17.319 "/>
<polygon fill="#EC663B" points="20,17.319 18,13.855 22,13.855 "/>
<polygon fill="#EC663B" points="26,13.855 28,17.319 24,17.319 "/>
<polygon fill="#CC3517" points="24,17.319 22,13.855 26,13.855 "/>
<polygon fill="#CC3517" points="28,17.319 26,13.855 30,13.855 "/>
<polygon fill="#EC663B" points="32,17.319 30,13.855 34,13.855 "/>
<polygon fill="#EC663B" points="36,17.319 34,13.855 38,13.855 "/>
<polygon fill="#CC3517" points="38,13.855 40,17.319 36,17.319 "/>
<polygon fill="#EC663B" points="42,13.855 44,17.319 40,17.319 "/>
<polygon fill="#EC663B" points="44,17.319 42,13.855 46,13.855 "/>
<polygon fill="#CC3517" points="46,13.855 48,17.319 44,17.319 "/>
<polygon fill="#EC663B" points="50,13.855 52,17.319 48,17.319 "/>
<polygon fill="#EC663B" points="52,17.319 50,13.855 54,13.855 "/>
<polygon fill="#EC663B" points="58,13.855 60,17.319 56,17.319 "/>
<polygon fill="#EC663B" points="60,17.319 58,13.855 62,13.855 "/>
<polygon fill="#EC663B" points="62,13.855 64,17.319 60,17.319 "/>
<polygon fill="#CC3517" points="66,13.855 68,17.319 64,17.319 "/>
<polygon fill="#CC3517" points="68,17.319 66,13.855 70,13.855 "/>
<polygon fill="#EC663B" points="70,13.855 72,17.319 68,17.319 "/>
<polygon fill="#CC3517" points="76,17.319 74,13.855 78,13.855 "/>
<polygon fill="#CC3517" points="78,13.855 80,17.319 76,17.319 "/>
<polygon fill="#CC3517" points="82,13.855 84,17.319 80,17.319 "/>
<polygon fill="#CC3517" points="80,17.319 78,13.855 82,13.855 "/>
<polygon fill="#EC663B" points="90,13.855 92,17.319 88,17.319 "/>
<polygon fill="#CC3517" points="88,17.319 86,13.855 90,13.855 "/>
<polygon fill="#EC663B" points="94,13.855 96,17.319 92,17.319 "/>
<polygon fill="#CC3517" points="98,13.855 100,17.319 96,17.319 "/>
<polygon fill="#EC663B" points="96,17.319 94,13.855 98,13.855 "/>
<polygon fill="#EC663B" points="4,17.319 6,20.783 2,20.783 "/>
<polygon fill="#CC3517" points="2,20.783 0,17.319 4,17.319 "/>
<polygon fill="#EC663B" points="6,20.783 4,17.319 8,17.319 "/>
<polygon fill="#CC3517" points="12,17.319 14,20.783 10,20.783 "/>
<polygon fill="#EC663B" points="10,20.783 8,17.319 12,17.319 "/>
<polygon fill="#EC663B" points="14,20.783 12,17.319 16,17.319 "/>
<polygon fill="#EC663B" points="16,17.319 18,20.783 14,20.783 "/>
<polygon fill="#CC3517" points="20,17.319 22,20.783 18,20.783 "/>
<polygon fill="#EC663B" points="24,17.319 26,20.783 22,20.783 "/>
<polygon fill="#EC663B" points="28,17.319 30,20.783 26,20.783 "/>
<polygon fill="#CC3517" points="26,20.783 24,17.319 28,17.319 "/>
<polygon fill="#CC3517" points="30,20.783 28,17.319 32,17.319 "/>
<polygon fill="#CC3517" points="32,17.319 34,20.783 30,20.783 "/>
<polygon fill="#EC663B" points="36,17.319 38,20.783 34,20.783 "/>
<polygon fill="#CC3517" points="38,20.783 36,17.319 40,17.319 "/>
<polygon fill="#EC663B" points="42,20.783 40,17.319 44,17.319 "/>
<polygon fill="#EC663B" points="46,20.783 44,17.319 48,17.319 "/>
<polygon fill="#EC663B" points="48,17.319 50,20.783 46,20.783 "/>
<polygon fill="#EC663B" points="52,17.319 54,20.783 50,20.783 "/>
<polygon fill="#CC3517" points="54,20.783 52,17.319 56,17.319 "/>
<polygon fill="#EC663B" points="60,17.319 62,20.783 58,20.783 "/>
<polygon fill="#EC663B" points="62,20.783 60,17.319 64,17.319 "/>
<polygon fill="#CC3517" points="68,17.319 70,20.783 66,20.783 "/>
<polygon fill="#EC663B" points="66,20.783 64,17.319 68,17.319 "/>
<polygon fill="#EC663B" points="70,20.783 68,17.319 72,17.319 "/>
<polygon fill="#CC3517" points="74,20.783 72,17.319 76,17.319 "/>
<polygon fill="#EC663B" points="80,17.319 82,20.783 78,20.783 "/>
<polygon fill="#CC3517" points="84,17.319 86,20.783 82,20.783 "/>
<polygon fill="#CC3517" points="82,20.783 80,17.319 84,17.319 "/>
<polygon fill="#CC3517" points="86,20.783 84,17.319 88,17.319 "/>
<polygon fill="#EC663B" points="88,17.319 90,20.783 86,20.783 "/>
<polygon fill="#EC663B" points="90,20.783 88,17.319 92,17.319 "/>
<polygon fill="#EC663B" points="100,17.319 102,20.783 98,20.783 "/>
<polygon fill="#CC3517" points="98,20.783 96,17.319 100,17.319 "/>
<polygon fill="#EC663B" points="2,20.783 4,24.247 0,24.247 "/>
<polygon fill="#CC3517" points="10,20.783 12,24.247 8,24.247 "/>
<polygon fill="#EC663B" points="8,24.247 6,20.783 10,20.783 "/>
<polygon fill="#CC3517" points="12,24.247 10,20.783 14,20.783 "/>
<polygon fill="#CC3517" points="20,24.247 18,20.783 22,20.783 "/>
<polygon fill="#CC3517" points="26,20.783 28,24.247 24,24.247 "/>
<polygon fill="#EC663B" points="24,24.247 22,20.783 26,20.783 "/>
<polygon fill="#EC663B" points="28,24.247 26,20.783 30,20.783 "/>
<polygon fill="#CC3517" points="34,20.783 36,24.247 32,24.247 "/>
<polygon fill="#CC3517" points="32,24.247 30,20.783 34,20.783 "/>
<polygon fill="#CC3517" points="36,24.247 34,20.783 38,20.783 "/>
<polygon fill="#CC3517" points="42,20.783 44,24.247 40,24.247 "/>
<polygon fill="#EC663B" points="40,24.247 38,20.783 42,20.783 "/>
<polygon fill="#CC3517" points="46,20.783 48,24.247 44,24.247 "/>
<polygon fill="#EC663B" points="50,20.783 52,24.247 48,24.247 "/>
<polygon fill="#EC663B" points="52,24.247 50,20.783 54,20.783 "/>
<polygon fill="#CC3517" points="54,20.783 56,24.247 52,24.247 "/>
<polygon fill="#EC663B" points="58,20.783 60,24.247 56,24.247 "/>
<polygon fill="#CC3517" points="56,24.247 54,20.783 58,20.783 "/>
<polygon fill="#EC663B" points="62,20.783 64,24.247 60,24.247 "/>
<polygon fill="#CC3517" points="68,24.247 66,20.783 70,20.783 "/>
<polygon fill="#EC663B" points="72,24.247 70,20.783 74,20.783 "/>
<polygon fill="#EC663B" points="76,24.247 74,20.783 78,20.783 "/>
<polygon fill="#CC3517" points="82,20.783 84,24.247 80,24.247 "/>
<polygon fill="#EC663B" points="80,24.247 78,20.783 82,20.783 "/>
<polygon fill="#CC3517" points="90,20.783 92,24.247 88,24.247 "/>
<polygon fill="#CC3517" points="88,24.247 86,20.783 90,20.783 "/>
<polygon fill="#CC3517" points="94,20.783 96,24.247 92,24.247 "/>
<polygon fill="#EC663B" points="98,20.783 100,24.247 96,24.247 "/>
<polygon fill="#CC3517" points="96,24.247 94,20.783 98,20.783 "/>
<polygon fill="#EC663B" points="100,24.247 98,20.783 102,20.783 "/>
<polygon fill="#EC663B" points="10,27.711 8,24.247 12,24.247 "/>
<polygon fill="#CC3517" points="24,24.247 26,27.711 22,27.711 "/>
<polygon fill="#EC663B" points="28,24.247 30,27.711 26,27.711 "/>
<polygon fill="#CC3517" points="30,27.711 28,24.247 32,24.247 "/>
<polygon fill="#EC663B" points="32,24.247 34,27.711 30,27.711 "/>
<polygon fill="#EC663B" points="36,24.247 38,27.711 34,27.711 "/>
<polygon fill="#CC3517" points="40,24.247 42,27.711 38,27.711 "/>
<polygon fill="#EC663B" points="44,24.247 46,27.711 42,27.711 "/>
<polygon fill="#CC3517" points="42,27.711 40,24.247 44,24.247 "/>
<polygon fill="#EC663B" points="48,24.247 50,27.711 46,27.711 "/>
<polygon fill="#CC3517" points="52,24.247 54,27.711 50,27.711 "/>
<polygon fill="#CC3517" points="50,27.711 48,24.247 52,24.247 "/>
<polygon fill="#EC663B" points="60,24.247 62,27.711 58,27.711 "/>
<polygon fill="#EC663B" points="58,27.711 56,24.247 60,24.247 "/>
<polygon fill="#CC3517" points="62,27.711 60,24.247 64,24.247 "/>
<polygon fill="#EC663B" points="64,24.247 66,27.711 62,27.711 "/>
<polygon fill="#EC663B" points="82,27.711 80,24.247 84,24.247 "/>
<polygon fill="#EC663B" points="92,24.247 94,27.711 90,27.711 "/>
<polygon fill="#CC3517" points="94,27.711 92,24.247 96,24.247 "/>
<polygon fill="#EC663B" points="98,27.711 96,24.247 100,24.247 "/>
<polygon fill="#EC663B" points="6,27.711 8,31.175 4,31.175 "/>
<polygon fill="#EC663B" points="16,31.175 14,27.711 18,27.711 "/>
<polygon fill="#CC3517" points="20,31.175 18,27.711 22,27.711 "/>
<polygon fill="#CC3517" points="28,31.175 26,27.711 30,27.711 "/>
<polygon fill="#CC3517" points="34,27.711 36,31.175 32,31.175 "/>
<polygon fill="#CC3517" points="36,31.175 34,27.711 38,27.711 "/>
<polygon fill="#CC3517" points="44,31.175 42,27.711 46,27.711 "/>
<polygon fill="#CC3517" points="50,27.711 52,31.175 48,31.175 "/>
<polygon fill="#EC663B" points="48,31.175 46,27.711 50,27.711 "/>
<polygon fill="#EC663B" points="54,27.711 56,31.175 52,31.175 "/>
<polygon fill="#EC663B" points="64,31.175 62,27.711 66,27.711 "/>
<polygon fill="#CC3517" points="70,27.711 72,31.175 68,31.175 "/>
<polygon fill="#EC663B" points="74,27.711 76,31.175 72,31.175 "/>
<polygon fill="#CC3517" points="92,31.175 90,27.711 94,27.711 "/>
<polygon fill="#CC3517" points="54,34.639 52,31.175 56,31.175 "/>
<polygon fill="#EC663B" points="36,38.105 34,34.642 38,34.642 "/>
<polygon fill="#EC663B" points="86,32.91 88,36.373 84,36.373 "/>
<polygon fill="#EC663B" points="2,6.928 4,10.392 0,10.392 "/>
<polygon fill="#EC663B" points="0,10.392 -2,6.928 2,6.928 "/>
<polygon fill="#CC3517" points="4,10.392 2,6.928 6,6.928 "/>
<polygon fill="#CC3517" points="10,6.928 12,10.392 8,10.392 "/>
<polygon fill="#EC663B" points="8,10.392 6,6.928 10,6.928 "/>
<polygon fill="#CC3517" points="12,10.392 10,6.928 14,6.928 "/>
<polygon fill="#CC3517" points="14,6.928 16,10.392 12,10.392 "/>
<polygon fill="#CC3517" points="18,6.928 20,10.392 16,10.392 "/>
<polygon fill="#CC3517" points="16,10.392 14,6.928 18,6.928 "/>
<polygon fill="#EC663B" points="20,10.392 18,6.928 22,6.928 "/>
<polygon fill="#EC663B" points="22,6.928 24,10.392 20,10.392 "/>
<polygon fill="#CC3517" points="26,6.928 28,10.392 24,10.392 "/>
<polygon fill="#CC3517" points="28,10.392 26,6.928 30,6.928 "/>
<polygon fill="#EC663B" points="30,6.928 32,10.392 28,10.392 "/>
<polygon fill="#CC3517" points="34,6.928 36,10.392 32,10.392 "/>
<polygon fill="#CC3517" points="32,10.392 30,6.928 34,6.928 "/>
<polygon fill="#CC3517" points="36,10.392 34,6.928 38,6.928 "/>
<polygon fill="#EC663B" points="42,6.928 44,10.392 40,10.392 "/>
<polygon fill="#CC3517" points="40,10.392 38,6.928 42,6.928 "/>
<polygon fill="#CC3517" points="44,10.392 42,6.928 46,6.928 "/>
<polygon fill="#CC3517" points="50,6.928 52,10.392 48,10.392 "/>
<polygon fill="#CC3517" points="54,6.928 56,10.392 52,10.392 "/>
<polygon fill="#EC663B" points="58,6.928 60,10.392 56,10.392 "/>
<polygon fill="#EC663B" points="56,10.392 54,6.928 58,6.928 "/>
<polygon fill="#CC3517" points="60,10.392 58,6.928 62,6.928 "/>
<polygon fill="#EC663B" points="66,6.928 68,10.392 64,10.392 "/>
<polygon fill="#CC3517" points="64,10.392 62,6.928 66,6.928 "/>
<polygon fill="#EC663B" points="68,10.392 66,6.928 70,6.928 "/>
<polygon fill="#CC3517" points="74,6.928 76,10.392 72,10.392 "/>
<polygon fill="#CC3517" points="72,10.392 70,6.928 74,6.928 "/>
<polygon fill="#EC663B" points="76,10.392 74,6.928 78,6.928 "/>
<polygon fill="#CC3517" points="78,6.928 80,10.392 76,10.392 "/>
<polygon fill="#CC3517" points="80,10.392 78,6.928 82,6.928 "/>
<polygon fill="#EC663B" points="84,10.392 82,6.928 86,6.928 "/>
<polygon fill="#CC3517" points="86,6.928 88,10.392 84,10.392 "/>
<polygon fill="#CC3517" points="90,6.928 92,10.392 88,10.392 "/>
<polygon fill="#EC663B" points="88,10.392 86,6.928 90,6.928 "/>
<polygon fill="#EC663B" points="98,6.928 100,10.392 96,10.392 "/>
<polygon fill="#CC3517" points="96,10.392 94,6.928 98,6.928 "/>
<polygon fill="#CC3517" points="52,10.392 50,6.928 54,6.928 "/>
<polygon fill="#CC3517" points="92,10.392 90,6.928 94,6.928 "/>
<polygon fill="#EC663B" points="99.959,10.392 97.959,6.928 101.959,6.928 "/>
<polygon fill="#CC3517" points="62,6.928 64,10.392 60,10.392 "/>
<polygon fill="#EC663B" points="82,6.928 84,10.392 80,10.392 "/>
<polygon fill="#EC663B" points="38,6.928 40,10.392 36,10.392 "/>
<polygon fill="#CC3517" points="0,3.464 2,6.928 -2,6.928 "/>
<polygon fill="#EC663B" points="4,3.464 6,6.928 2,6.928 "/>
<polygon fill="#CC3517" points="2,6.928 0,3.464 4,3.464 "/>
<polygon fill="#CC3517" points="6,6.928 4,3.464 8,3.464 "/>
<polygon fill="#CC3517" points="12,3.464 14,6.928 10,6.928 "/>
<polygon fill="#EC663B" points="10,6.928 8,3.464 12,3.464 "/>
<polygon fill="#EC663B" points="14,6.928 12,3.464 16,3.464 "/>
<polygon fill="#CC3517" points="16,3.464 18,6.928 14,6.928 "/>
<polygon fill="#CC3517" points="20,3.464 22,6.928 18,6.928 "/>
<polygon fill="#CC3517" points="18,6.928 16,3.464 20,3.464 "/>
<polygon fill="#CC3517" points="22,6.928 20,3.464 24,3.464 "/>
<polygon fill="#EC663B" points="24,3.464 26,6.928 22,6.928 "/>
<polygon fill="#CC3517" points="28,3.464 30,6.928 26,6.928 "/>
<polygon fill="#CC3517" points="26,6.928 24,3.464 28,3.464 "/>
<polygon fill="#CC3517" points="30,6.928 28,3.464 32,3.464 "/>
<polygon fill="#CC3517" points="36,3.464 38,6.928 34,6.928 "/>
<polygon fill="#CC3517" points="34,6.928 32,3.464 36,3.464 "/>
<polygon fill="#CC3517" points="38,6.928 36,3.464 40,3.464 "/>
<polygon fill="#EC663B" points="44,3.464 46,6.928 42,6.928 "/>
<polygon fill="#CC3517" points="42,6.928 40,3.464 44,3.464 "/>
<polygon fill="#EC663B" points="46,6.928 44,3.464 48,3.464 "/>
<polygon fill="#CC3517" points="48,3.464 50,6.928 46,6.928 "/>
<polygon fill="#EC663B" points="52,3.464 54,6.928 50,6.928 "/>
<polygon fill="#CC3517" points="50,6.928 48,3.464 52,3.464 "/>
<polygon fill="#CC3517" points="56,3.464 58,6.928 54,6.928 "/>
<polygon fill="#CC3517" points="60,3.464 62,6.928 58,6.928 "/>
<polygon fill="#CC3517" points="58,6.928 56,3.464 60,3.464 "/>
<polygon fill="#EC663B" points="62,6.928 60,3.464 64,3.464 "/>
<polygon fill="#CC3517" points="68,3.464 70,6.928 66,6.928 "/>
<polygon fill="#EC663B" points="66,6.928 64,3.464 68,3.464 "/>
<polygon fill="#CC3517" points="70,6.928 68,3.464 72,3.464 "/>
<polygon fill="#CC3517" points="72,3.464 74,6.928 70,6.928 "/>
<polygon fill="#EC663B" points="76,3.464 78,6.928 74,6.928 "/>
<polygon fill="#EC663B" points="74,6.928 72,3.464 76,3.464 "/>
<polygon fill="#CC3517" points="78,6.928 76,3.464 80,3.464 "/>
<polygon fill="#CC3517" points="80,3.464 82,6.928 78,6.928 "/>
<polygon fill="#CC3517" points="82,6.928 80,3.464 84,3.464 "/>
<polygon fill="#CC3517" points="86,6.928 84,3.464 88,3.464 "/>
<polygon fill="#EC663B" points="88,3.464 90,6.928 86,6.928 "/>
<polygon fill="#CC3517" points="92,3.464 94,6.928 90,6.928 "/>
<polygon fill="#EC663B" points="90,6.928 88,3.464 92,3.464 "/>
<polygon fill="#CC3517" points="96,3.464 98,6.928 94,6.928 "/>
<polygon fill="#CC3517" points="100,3.464 102,6.928 98,6.928 "/>
<polygon fill="#EC663B" points="98,6.928 96,3.464 100,3.464 "/>
<polygon fill="#EC663B" points="54,6.928 52,3.464 56,3.464 "/>
<polygon fill="#CC3517" points="94,6.928 92,3.464 96,3.464 "/>
<polygon fill="#EC663B" points="64,3.464 66,6.928 62,6.928 "/>
<polygon fill="#CC3517" points="84,3.464 86,6.928 82,6.928 "/>
<polygon fill="#CC3517" points="40,3.464 42,6.928 38,6.928 "/>
<polygon fill="#EC663B" points="16,41.569 14,38.105 18,38.105 "/>
<polygon fill="#EC663B" points="72,31.178 74,34.642 70,34.642 "/>
<polygon fill="#CC3517" points="76,31.175 74,27.711 78,27.711 "/>
<polygon fill="#EC663B" points="28,38.105 26,34.642 30,34.642 "/>
<polygon fill="#CC3517" points="30,34.642 32,38.105 28,38.105 "/>
<polygon fill="#EC663B" points="30,41.569 28,38.105 32,38.105 "/>
<polygon fill="#CC3517" points="34,41.569 32,38.105 36,38.105 "/>
<polygon fill="#EC663B" points="26,34.642 24,31.178 28,31.178 "/>
<polygon fill="#EC663B" points="26,48.497 24,45.033 28,45.033 "/>
<polygon fill="#EC663B" points="90,27.711 92,31.175 88,31.175 "/>
<polygon fill="#EC663B" points="2,0 4,3.464 0,3.464 "/>
<polygon fill="#EC663B" points="0,3.464 -2,0 2,0 "/>
<polygon fill="#CC3517" points="4,3.464 2,0 6,0 "/>
<polygon fill="#EC663B" points="10,0 12,3.464 8,3.464 "/>
<polygon fill="#EC663B" points="8,3.464 6,0 10,0 "/>
<polygon fill="#CC3517" points="12,3.464 10,0 14,0 "/>
<polygon fill="#CC3517" points="14,0 16,3.464 12,3.464 "/>
<polygon fill="#CC3517" points="18,0 20,3.464 16,3.464 "/>
<polygon fill="#CC3517" points="16,3.464 14,0 18,0 "/>
<polygon fill="#CC3517" points="20,3.464 18,0 22,0 "/>
<polygon fill="#CC3517" points="22,0 24,3.464 20,3.464 "/>
<polygon fill="#CC3517" points="26,0 28,3.464 24,3.464 "/>
<polygon fill="#CC3517" points="24,3.464 22,0 26,0 "/>
<polygon fill="#CC3517" points="28,3.464 26,0 30,0 "/>
<polygon fill="#CC3517" points="34,0 36,3.464 32,3.464 "/>
<polygon fill="#CC3517" points="32,3.464 30,0 34,0 "/>
<polygon fill="#CC3517" points="36,3.464 34,0 38,0 "/>
<polygon fill="#CC3517" points="42,0 44,3.464 40,3.464 "/>
<polygon fill="#CC3517" points="40,3.464 38,0 42,0 "/>
<polygon fill="#CC3517" points="44,3.464 42,0 46,0 "/>
<polygon fill="#CC3517" points="46,0 48,3.464 44,3.464 "/>
<polygon fill="#CC3517" points="50,0 52,3.464 48,3.464 "/>
<polygon fill="#EC663B" points="48,3.464 46,0 50,0 "/>
<polygon fill="#EC663B" points="54,0 56,3.464 52,3.464 "/>
<polygon fill="#CC3517" points="58,0 60,3.464 56,3.464 "/>
<polygon fill="#CC3517" points="56,3.464 54,0 58,0 "/>
<polygon fill="#CC3517" points="60,3.464 58,0 62,0 "/>
<polygon fill="#CC3517" points="66,0 68,3.464 64,3.464 "/>
<polygon fill="#EC663B" points="64,3.464 62,0 66,0 "/>
<polygon fill="#CC3517" points="68,3.464 66,0 70,0 "/>
<polygon fill="#CC3517" points="70,0 72,3.464 68,3.464 "/>
<polygon fill="#EC663B" points="74,0 76,3.464 72,3.464 "/>
<polygon fill="#CC3517" points="72,3.464 70,0 74,0 "/>
<polygon fill="#CC3517" points="76,3.464 74,0 78,0 "/>
<polygon fill="#CC3517" points="78,0 80,3.464 76,3.464 "/>
<polygon fill="#CC3517" points="80,3.464 78,0 82,0 "/>
<polygon fill="#EC663B" points="84,3.464 82,0 86,0 "/>
<polygon fill="#CC3517" points="86,0 88,3.464 84,3.464 "/>
<polygon fill="#CC3517" points="90,0 92,3.464 88,3.464 "/>
<polygon fill="#CC3517" points="88,3.464 86,0 90,0 "/>
<polygon fill="#EC663B" points="94,0 96,3.464 92,3.464 "/>
<polygon fill="#CC3517" points="98,0 100,3.464 96,3.464 "/>
<polygon fill="#CC3517" points="96,3.464 94,0 98,0 "/>
<polygon fill="#CC3517" points="52,3.464 50,0 54,0 "/>
<polygon fill="#CC3517" points="92,3.464 90,0 94,0 "/>
<polygon fill="#EC663B" points="62,0 64,3.464 60,3.464 "/>
<polygon fill="#EC663B" points="82,0 84,3.464 80,3.464 "/>
<polygon fill="#CC3517" points="38,0 40,3.464 36,3.464 "/>
<polygon fill="#CC3517" points="6,0 8,3.464 4,3.464 "/>
<polygon fill="#CC3517" points="30,0 32,3.464 28,3.464 "/>
<polygon fill="#CC3517" points="99.959,3.464 97.959,0 101.959,0 "/>
<polygon fill="#EC663B" points="32,3.464 34,6.928 30,6.928 "/>
<polygon fill="#EC663B" points="48,10.392 46,6.928 50,6.928 "/>
<polygon fill="#CC3517" points="22,41.57 24,45.033 20,45.033 "/>
<polygon fill="#CC3517" points="16,24.247 14,20.783 18,20.783 "/>
<polygon fill="#CC3517" points="18,20.783 20,24.247 16,24.247 "/>
<polygon fill="#EC663B" points="18,27.711 16,24.247 20,24.247 "/>
<polygon fill="#CC3517" points="22,34.639 20,31.175 24,31.175 "/>
<polygon fill="#EC663B" points="24,38.105 22,34.642 26,34.642 "/>
<polygon fill="#EC663B" points="22,27.712 24,31.175 20,31.175 "/>
<polygon fill="#CC3517" points="6,34.639 4,31.175 8,31.175 "/>
<polygon fill="#CC3517" points="14,27.711 16,31.175 12,31.175 "/>
<polygon fill="#CC3517" points="20,38.105 18,34.641 22,34.641 "/>
<polygon fill="#CC3517" points="14,27.711 12,24.247 16,24.247 "/>
<polygon fill="#EC663B" points="60,38.105 58,34.641 62,34.641 "/>
<polygon fill="#EC663B" points="32,31.178 34,34.641 30,34.641 "/>
<polygon fill="#CC3517" points="42,27.711 44,31.176 40,31.176 "/>
<polygon fill="#EC663B" points="40,31.18 42,34.643 38,34.643 "/>
<polygon fill="#EC663B" points="34,34.639 32,31.176 36,31.176 "/>
<polygon fill="#EC663B" points="48,31.178 50,34.643 46,34.643 "/>
<polygon fill="#EC663B" points="44,38.105 46,41.568 42,41.568 "/>
</svg>
