<?xml version="1.0" encoding="utf-8"?>
<!-- Generator: Adobe Illustrator 16.2.0, SVG Export Plug-In . SVG Version: 6.00 Build 0)  -->
<svg version="1.2" baseProfile="tiny" id="Слой_1"
	 xmlns="http://www.w3.org/2000/svg" xmlns:xlink="http://www.w3.org/1999/xlink" x="0px" y="0px" width="50px" height="50px"
	 viewBox="0 0 50 50" xml:space="preserve">
<line fill="none" stroke="#CC3517" stroke-miterlimit="10" x1="39.42" y1="10.429" x2="28.258" y2="4.346"/>
<line fill="none" stroke="#CC3517" stroke-miterlimit="10" x1="37.463" y1="9.361" x2="38.998" y2="6.542"/>
<line fill="none" stroke="#CC3517" stroke-miterlimit="10" x1="30.178" y1="5.391" x2="31.713" y2="2.572"/>
<line fill="none" stroke="#CC3517" stroke-miterlimit="10" x1="35.582" y1="8.337" x2="37.119" y2="5.518"/>
<line fill="none" stroke="#CC3517" stroke-miterlimit="10" x1="32.057" y1="6.416" x2="33.594" y2="3.597"/>
<line fill="none" stroke="#CC3517" stroke-miterlimit="10" x1="33.838" y1="7.388" x2="35.375" y2="4.568"/>
<line fill="none" stroke="#CC3517" stroke-miterlimit="10" x1="28.846" y1="29.087" x2="18.311" y2="23.346"/>
<g>
	<path fill="#CC3517" d="M15.97,26.596c-0.507,0.931-1.271,1.837-1.251,2.922c0.029,1.583,0.057,3.167,0.086,4.75
		c0.003,0.173,0.092,0.347,0.248,0.432c1.997,1.088,3.994,2.177,5.991,3.265c0.155,0.085,0.351,0.096,0.505,0
		c0.879-0.545,1.759-1.09,2.639-1.636c0.518-0.32,1.686-0.743,1.997-1.314c0.89-1.633,1.779-3.266,2.67-4.897
		c2.274-4.174,4.55-8.348,6.824-12.522c0.309-0.566-0.555-1.071-0.863-0.505c-3.157,5.792-6.314,11.584-9.471,17.376
		c0.1-0.183-0.917,0.538-1.259,0.75c-0.877,0.544-1.754,1.087-2.63,1.63c-0.521,0.323-0.299,0.041,0.055,0.233
		c-0.272-0.148-0.545-0.297-0.818-0.445c-1.063-0.579-2.125-1.158-3.188-1.737c-0.635-0.347-1.271-0.692-1.906-1.039
		c0.405,0.221,0.207,0.351,0.193-0.407c-0.011-0.6-0.022-1.199-0.033-1.8c-0.041-2.229,0.026-2.624,1.076-4.551
		C17.142,26.533,16.278,26.029,15.97,26.596L15.97,26.596z"/>
</g>
<g>
	<path fill="#CC3517" d="M17.796,25.335c2.415-4.432,4.831-8.864,7.246-13.296c1.843-3.382,3.345-6.886,5.185-10.26
		c-0.228,0.06-0.456,0.12-0.684,0.179c3.721,2.028,7.441,4.056,11.162,6.083c-0.061-0.228-0.12-0.456-0.18-0.684
		c-1.46,2.678-3.207,5.138-4.664,7.812c-0.309,0.566,0.555,1.071,0.863,0.505c1.457-2.675,3.204-5.135,4.664-7.812
		c0.128-0.234,0.065-0.551-0.18-0.684c-3.721-2.028-7.441-4.056-11.162-6.083c-0.233-0.127-0.551-0.065-0.684,0.179
		c-1.773,3.253-3.207,6.63-4.983,9.889c-2.482,4.556-4.965,9.112-7.448,13.667C16.624,25.397,17.487,25.902,17.796,25.335
		L17.796,25.335z"/>
</g>
<g>
	<path fill="#CC3517" d="M23.345,32.78c-2.5-1.363-5.001-2.726-7.502-4.089c-0.566-0.309-1.071,0.555-0.505,0.863
		c2.5,1.363,5.001,2.726,7.502,4.089C23.407,33.952,23.912,33.089,23.345,32.78L23.345,32.78z"/>
</g>
<g>
	<path fill="#CC3517" d="M34.242,19.215c-2.701-1.472-5.403-2.944-8.105-4.416c-0.566-0.309-1.071,0.555-0.504,0.863
		c2.702,1.472,5.404,2.944,8.106,4.416C34.305,20.387,34.809,19.523,34.242,19.215L34.242,19.215z"/>
</g>
<g>
	<path fill="#CC3517" d="M37.74,12.795c-2.701-1.473-5.402-2.945-8.104-4.417c-0.566-0.309-1.07,0.555-0.504,0.863
		c2.701,1.473,5.402,2.945,8.104,4.417C37.803,13.967,38.307,13.104,37.74,12.795L37.74,12.795z"/>
</g>
<circle fill="#CC3517" stroke="#CC3517" stroke-miterlimit="10" cx="26.168" cy="21.462" r="2.844"/>
<line fill="none" stroke="#CC3517" stroke-miterlimit="10" x1="15.305" y1="34.268" x2="14.2" y2="36.293"/>
<line fill="none" stroke="#CC3517" stroke-miterlimit="10" x1="21.296" y1="37.532" x2="20.192" y2="39.559"/>
<g>
	<path fill="#CC3517" d="M16.632,47.721c-2.445-1.333-4.891-2.666-7.336-3.999c0.06,0.228,0.12,0.456,0.179,0.684
		c1.501-2.771,2.969-5.722,3.703-8.8c-0.245,0.1-0.489,0.199-0.734,0.299c3,1.635,6,3.271,9,4.905
		c-0.034-0.262-0.067-0.523-0.101-0.785c-2.193,2.289-3.876,5.107-5.395,7.876c-0.311,0.565,0.553,1.069,0.863,0.504
		c1.476-2.69,3.108-5.449,5.238-7.673c0.217-0.227,0.188-0.628-0.101-0.785c-3-1.635-6-3.271-9-4.905
		c-0.275-0.149-0.658-0.024-0.734,0.299c-0.715,3.001-2.138,5.857-3.602,8.562c-0.127,0.233-0.065,0.55,0.179,0.684
		c2.445,1.333,4.891,2.666,7.336,3.999C16.694,48.893,17.199,48.029,16.632,47.721z"/>
</g>
</svg>
