<?xml version="1.0" encoding="utf-8"?>
<!-- Generator: Adobe Illustrator 16.2.0, SVG Export Plug-In . SVG Version: 6.00 Build 0)  -->
<!DOCTYPE svg PUBLIC "-//W3C//DTD SVG 1.1//EN" "http://www.w3.org/Graphics/SVG/1.1/DTD/svg11.dtd">
<svg version="1.1" id="Слой_1" xmlns="http://www.w3.org/2000/svg" xmlns:xlink="http://www.w3.org/1999/xlink" x="0px" y="0px"
	 width="50px" height="50px" viewBox="0 0 50 50" enable-background="new 0 0 50 50" xml:space="preserve">
<g>
	<g>
		<path fill="#FFFFFF" d="M37.043,45.499c-8.028,0-16.057,0-24.086,0c0.333,0.333,0.667,0.667,1,1c0-14.332,0-28.665,0-42.997
			c-0.333,0.333-0.667,0.667-1,1c8.029,0,16.058,0,24.086,0c-0.333-0.333-0.667-0.667-1-1c0,14.333,0,28.665,0,42.997
			c0,1.29,2,1.29,2,0c0-14.332,0-28.665,0-42.997c0-0.545-0.455-1-1-1c-8.028,0-16.057,0-24.086,0c-0.545,0-1,0.455-1,1
			c0,14.333,0,28.665,0,42.997c0,0.545,0.455,1,1,1c8.029,0,16.058,0,24.086,0C38.333,47.499,38.333,45.499,37.043,45.499z"/>
	</g>
</g>
<rect x="19.692" y="5.85" fill="#FFFFFF" width="10.616" height="1.427"/>
<circle fill="#FFFFFF" cx="25" cy="41.503" r="2.453"/>
</svg>
