<?xml version="1.0" encoding="utf-8"?>
<!-- Generator: Adobe Illustrator 16.2.0, SVG Export Plug-In . SVG Version: 6.00 Build 0)  -->
<svg version="1.2" baseProfile="tiny" id="Слой_1"
	 xmlns="http://www.w3.org/2000/svg" xmlns:xlink="http://www.w3.org/1999/xlink" x="0px" y="0px" width="50px" height="50px"
	 viewBox="0 0 50 50" xml:space="preserve">
<circle fill="none" stroke="#FFFFFF" stroke-width="2" stroke-miterlimit="10" cx="25" cy="25" r="22.525"/>
<circle fill="none" stroke="#FFFFFF" stroke-width="2" stroke-miterlimit="10" cx="25" cy="25.001" r="14.853"/>
<path fill="#FFFFFF" d="M10.593,30.739c-2.182,0.864-4.365,1.729-6.547,2.592c-2.063-5.211-2.063-11.012,0-16.223
	c2.182,0.864,4.365,1.728,6.547,2.592C9.189,23.246,9.189,27.193,10.593,30.739z"/>
<path fill="#FFFFFF" d="M45.953,33.331c-2.183-0.864-4.364-1.728-6.547-2.592c1.404-3.546,1.404-7.493,0-11.039
	c2.183-0.864,4.364-1.728,6.547-2.592C48.016,22.319,48.016,28.12,45.953,33.331z"/>
<path fill="#FFFFFF" d="M19.48,10.504c-0.864-2.182-1.728-4.364-2.592-6.546c5.211-2.063,11.012-2.063,16.223,0
	c-0.864,2.182-1.729,4.364-2.593,6.546C26.973,9.101,23.025,9.101,19.48,10.504z"/>
<path fill="#FFFFFF" d="M16.888,45.955c0.864-2.183,1.728-4.364,2.592-6.547c3.546,1.404,7.493,1.404,11.039,0
	c0.864,2.183,1.728,4.364,2.592,6.547C27.9,48.018,22.099,48.018,16.888,45.955z"/>
</svg>
