<?xml version="1.0" encoding="utf-8"?>
<!-- Generator: Adobe Illustrator 16.2.0, SVG Export Plug-In . SVG Version: 6.00 Build 0)  -->
<!DOCTYPE svg PUBLIC "-//W3C//DTD SVG 1.1//EN" "http://www.w3.org/Graphics/SVG/1.1/DTD/svg11.dtd">
<svg version="1.1" id="Слой_1" xmlns="http://www.w3.org/2000/svg" xmlns:xlink="http://www.w3.org/1999/xlink" x="0px" y="0px"
	 width="50px" height="50px" viewBox="0 0 50 50" enable-background="new 0 0 50 50" xml:space="preserve">
<g>
	<path fill="none" stroke="#000000" stroke-width="3" stroke-miterlimit="10" d="M39.853,32.078c0,8.25-6.684,15-14.853,15
		c-8.169,0-14.853-6.75-14.853-15V17.921c0-8.25,6.684-15,14.853-15c8.169,0,14.853,6.75,14.853,15V32.078z"/>
</g>
<g>
	<path d="M27.654,20.929c0,1.65-1.195,3-2.654,3c-1.459,0-2.654-1.35-2.654-3v-5.507c0-1.65,1.194-3,2.654-3
		c1.459,0,2.654,1.35,2.654,3V20.929z"/>
</g>
</svg>
