<?xml version="1.0" encoding="utf-8"?>
<!-- Generator: Adobe Illustrator 16.2.0, SVG Export Plug-In . SVG Version: 6.00 Build 0)  -->
<!DOCTYPE svg PUBLIC "-//W3C//DTD SVG 1.1//EN" "http://www.w3.org/Graphics/SVG/1.1/DTD/svg11.dtd">
<svg version="1.1" id="Слой_1" xmlns="http://www.w3.org/2000/svg" xmlns:xlink="http://www.w3.org/1999/xlink" x="0px" y="0px"
	 width="50px" height="150px" viewBox="0 0 50 150" enable-background="new 0 0 50 150" xml:space="preserve">
<path fill="#FDE6D5" d="M39.3,150H0V0h34.77c0,0-11.687,19.251-9.04,49.99C28.25,79.25,34.25,75,39.3,110.36
	C42.136,130.221,39.3,150,39.3,150z"/>
<path fill="#FBCBAA" d="M36.75,150H0V0l30.75,0c0,0-10.627,16.75-5.75,57.799c2.694,22.675,9.7,18.417,11.561,46.232
	C39,140.5,36.75,150,36.75,150z"/>
<path fill="#EFE2D3" d="M35.841,108.502c0,27.659-2.128,41.498-2.128,41.498H0V0h27.861c0,0-7.738,23.131-4.883,48.238
	C25.555,70.9,35.841,82.962,35.841,108.502z"/>
<path fill="#FFFFFF" d="M34.25,106.109c0,27.66-8.72,43.891-8.72,43.891H0V0h23.74c0,0-5.45,27.12,0.13,52.92
	C28.7,75.209,34.25,80.57,34.25,106.109z"/>
</svg>
