<?xml version="1.0" encoding="utf-8"?>
<!-- Generator: Adobe Illustrator 16.2.0, SVG Export Plug-In . SVG Version: 6.00 Build 0)  -->
<svg version="1.2" baseProfile="tiny" id="Слой_1"
	 xmlns="http://www.w3.org/2000/svg" xmlns:xlink="http://www.w3.org/1999/xlink" x="0px" y="0px" width="50px" height="50px"
	 viewBox="0 0 50 50" xml:space="preserve">
<path fill="#010202" d="M48.418,20.452c0-3.306-0.979-6.44-2.697-9.204c-1.019-1.626-2.314-3.134-3.821-4.456
	C37.642,3.05,31.638,0.697,25,0.697c-6.638,0-12.641,2.354-16.898,6.096c-1.508,1.322-2.804,2.83-3.822,4.456
	c-1.72,2.764-2.698,5.898-2.698,9.204c0,6.507,8.031,14.436,8.031,14.436c0.783,0.773,1.423,2.306,1.423,3.405v4.172
	c0,1.1-0.089,2.378-0.198,2.84s-0.365,1.551-0.568,2.42c-0.204,0.869,0.529,1.58,1.629,1.58h1.197c1.1,0,2-0.9,2-2v-0.746
	c0-1.1,0.367-2.821,0.816-3.826c0,0,0.083-0.186,1.181-0.186c1.11,0,1.193,0.186,1.193,0.186c0.449,1.005,0.816,2.727,0.816,3.826
	v0.746c0,1.1,0.9,2,2,2h0.006c1.1,0,2-0.9,2-2v-0.746c0-1.1,0.367-2.821,0.816-3.826c0,0,0.083-0.186,1.181-0.186
	c1.111,0,1.194,0.186,1.194,0.186c0.448,1.005,0.815,2.727,0.815,3.826v0.746c0,1.1,0.851,2,1.891,2c1.041,0,1.892-0.9,1.892-2
	v-0.746c0-1.1,0.367-2.821,0.815-3.826c0,0,0.083-0.186,1.181-0.186c1.111,0,1.194,0.187,1.194,0.187
	c0.45,1.004,0.817,2.726,0.817,3.825v0.746c0,1.1,0.9,2,2,2h1.195c1.1,0,1.833-0.711,1.63-1.58s-0.478-2.032-0.608-2.585
	s-0.238-1.905-0.238-3.005v-3.801c0-1.1,0.643-2.63,1.428-3.4C40.312,34.934,48.418,26.984,48.418,20.452z M16.444,33.385
	c-4.218,0-7.643-3.439-7.643-7.644c0-4.244,3.425-7.656,7.643-7.656c4.219,0,7.644,3.412,7.644,7.656
	C24.088,29.945,20.663,33.385,16.444,33.385z M23.694,36.861c-1.1,0-1.55-0.779-1-1.732L24,32.869c0.55-0.953,1.45-0.953,2-0.001
	l1.306,2.262c0.55,0.952,0.1,1.731-1,1.731H23.694z M33.556,33.385c-4.218,0-7.644-3.439-7.644-7.644
	c0-4.244,3.426-7.656,7.644-7.656c4.219,0,7.643,3.412,7.643,7.656C41.198,29.945,37.774,33.385,33.556,33.385z"/>
<rect x="9.372" y="22.831" fill="none" width="15.294" height="13.086"/>
<g>
	<rect x="15.953" y="22.197" transform="matrix(0.7069 0.7073 -0.7073 0.7069 23.4845 -3.9432)" width="1.093" height="8.334"/>
	<path d="M13.905,29.732c-0.316-0.199-0.628-0.402-0.923-0.624l-0.173-0.13l0.173-0.239c0.412-0.571,0.815-1.149,1.258-1.688
		c0.426-0.557,0.891-1.073,1.336-1.61l1.398-1.548l1.449-1.497l0.636-0.658l0.636,0.658l0.76,0.786l0.616,0.637l-0.616,0.609
		c-0.494,0.488-1.001,0.963-1.523,1.424c-0.261,0.23-0.51,0.473-0.78,0.693l-0.81,0.664l-0.809,0.664
		c-0.272,0.22-0.532,0.45-0.824,0.648c-0.576,0.406-1.125,0.84-1.735,1.212l-0.036,0.022L13.905,29.732z M13.94,29.626l5.827-5.889
		v0.133l-0.777-0.769h0.141l-5.924,5.861v-0.078L13.94,29.626z"/>
</g>
<g>
	<rect x="15.954" y="22.197" transform="matrix(0.7073 -0.7069 0.7069 0.7073 -13.8074 19.3796)" width="1.091" height="8.334"/>
	<path d="M19.868,28.96c-0.199,0.316-0.401,0.627-0.623,0.921l-0.13,0.173l-0.239-0.173c-0.571-0.411-1.149-0.815-1.688-1.258
		c-0.557-0.426-1.074-0.891-1.611-1.336l-1.548-1.398l-1.497-1.449l-0.658-0.636l0.658-0.636l0.785-0.759l0.637-0.616l0.609,0.616
		c0.488,0.494,0.963,1.001,1.424,1.523c0.23,0.261,0.472,0.51,0.693,0.78l0.664,0.81l0.664,0.809
		c0.219,0.271,0.45,0.532,0.649,0.824c0.406,0.576,0.84,1.125,1.211,1.735l0.022,0.036L19.868,28.96z M19.761,28.925l-5.888-5.827
		h0.133l-0.768,0.776v-0.141l5.862,5.924h-0.079L19.761,28.925z"/>
</g>
<rect x="29.667" y="25" fill="none" stroke="#010202" stroke-width="0.75" stroke-miterlimit="10" width="6.166" height="4.697"/>
<polyline fill="none" stroke="#010202" stroke-width="0.75" stroke-miterlimit="10" points="31.917,25 31.917,22.333 37.917,22.333 
	37.917,26.667 35.833,26.667 "/>
<rect x="29.667" y="25" fill="#010202" width="6.166" height="1"/>
<rect x="31.917" y="22.331" fill="#010202" width="6.166" height="1"/>
</svg>
