<?xml version="1.0" encoding="utf-8"?>
<!-- Generator: Adobe Illustrator 16.2.0, SVG Export Plug-In . SVG Version: 6.00 Build 0)  -->
<svg version="1.2" baseProfile="tiny" id="Слой_1"
	 xmlns="http://www.w3.org/2000/svg" xmlns:xlink="http://www.w3.org/1999/xlink" x="0px" y="0px" width="50px" height="50px"
	 viewBox="0 0 50 50" xml:space="preserve">
<path fill="#FFFFFF" d="M19.94,4.39c-2.38,0.57-4.6,1.53-6.58,2.83L12.2,5.59c2.15-1.42,4.56-2.48,7.14-3.12l0.47,1.5l0.1,0.32
	L19.94,4.39z"/>
<path fill="#FFFFFF" d="M3.75,25c0,2.23,0.35,4.36,0.99,6.37l-0.19,0.06l-1.5,0.5L2.84,32c-0.7-2.21-1.09-4.56-1.09-7
	c0-5.34,1.8-10.25,4.83-14.18c0.03,0,0.06,0.01,0.09,0.01l1.22,0.92l0.08,0.06l0.25,0.18C5.42,15.59,3.75,20.09,3.75,25z"/>
<path fill="#FFFFFF" d="M17.25,44.77l-0.04,0.091l-0.08,0.18v0.02l-0.17,0.45l-0.38,1.01l-0.04,0.12
	c-2.39-0.939-4.58-2.27-6.51-3.899l0.01-0.01l0.27-0.271l1.09-1.07l0.05-0.05C13.17,42.77,15.13,43.94,17.25,44.77z"/>
<path fill="#FFFFFF" d="M47.7,20.07c-0.01,0.01-0.01,0.02-0.021,0.02c-0.029,0.03-0.069,0.06-0.1,0.09L47.5,20.2l-1.43,0.38
	l-0.04,0.01l-0.07,0.03l-0.01-0.01h-0.01l-0.021,0.01l-0.13,0.03c-1.61-7.76-7.45-13.96-15.01-16.1V4.54l0.02-0.08l0.54-1.83
	C39.55,4.95,45.88,11.67,47.7,20.07z"/>
<path fill="#FFFFFF" d="M46.12,34.72c-3.64,7.91-11.59,13.42-20.84,13.521V47.85l0.01-1.529l-0.01-0.07v-0.01
	c8.44-0.101,15.68-5.13,18.99-12.34l0.021,0.01l0.51,0.229l0.99,0.431l0.11,0.04l0.1,0.05L46.12,34.72z"/>
<circle fill="none" stroke="#FFFFFF" stroke-width="2" stroke-miterlimit="10" cx="25" cy="25" r="19.09"/>
<path fill="none" stroke="#FFFFFF" stroke-miterlimit="10" d="M15.669,26.21c-0.196,0.514-0.118,1.316,0.173,1.783l5.118,8.211
	c0.291,0.467,0.975,0.79,1.52,0.718l5.07-0.671c0.545-0.072,1.373-0.369,1.84-0.66l6.87-4.281c0.467-0.291,0.786-0.975,0.709-1.52
	l-0.838-5.935c-0.077-0.544-0.378-1.372-0.669-1.839L31.7,15.979c-0.291-0.467-0.911-0.611-1.378-0.32l-4.953,3.086
	c-0.467,0.291-1.015,0.11-1.217-0.401l-1.746-4.404c-0.203-0.511-0.606-1.312-0.897-1.778l-0.337-0.541
	c-0.291-0.467-0.911-0.61-1.377-0.32l-1.627,1.015c-0.467,0.291-0.807,0.977-0.755,1.524l0.254,2.705
	c0.052,0.547,0.036,1.442-0.035,1.987L17.26,21.38c-0.071,0.545-0.289,1.412-0.485,1.926L15.669,26.21z"/>
<path fill="none" stroke="#FFFFFF" stroke-miterlimit="10" d="M6.999,28.813l4.95-2.822c0.956-0.545,2.219-0.23,2.807,0.7
	l7.235,11.432c0.588,0.93,0.303,2.161-0.635,2.736l-2.982,1.829"/>
<circle fill="#FFFFFF" cx="19.187" cy="38.875" r="1.189"/>
<path fill="none" stroke="#010202" stroke-width="2" stroke-miterlimit="10" d="M3.083,15.417"/>
</svg>
