<?xml version="1.0" encoding="utf-8"?>
<!-- Generator: Adobe Illustrator 16.2.0, SVG Export Plug-In . SVG Version: 6.00 Build 0)  -->
<svg version="1.2" baseProfile="tiny" id="Слой_1"
	 xmlns="http://www.w3.org/2000/svg" xmlns:xlink="http://www.w3.org/1999/xlink" x="0px" y="0px" width="50px" height="50px"
	 viewBox="0 0 50 50" xml:space="preserve">
<path fill="#FFFFFF" d="M20.271,18.505c-2.34,1.19-4.17,3.25-5.07,5.75l-1.16-0.37c1.02-2.85,3.11-5.19,5.79-6.52
	c0.01,0.09,0.03,0.18,0.07,0.27L20.271,18.505z"/>
<circle fill="none" stroke="#FFFFFF" stroke-width="3" stroke-miterlimit="10" cx="25.002" cy="27.773" r="19.09"/>
<path fill="none" stroke="#010202" stroke-width="2" stroke-miterlimit="10" d="M3.083,16.933"/>
<path fill="#FFFFFF" d="M26.658,7.953c0,0.55-0.45,1-1,1h-1.313c-0.55,0-1-0.45-1-1V5.734c0-0.55,0.45-1,1-1h1.313
	c0.55,0,1,0.45,1,1V7.953z"/>
<circle fill="none" stroke="#FFFFFF" stroke-miterlimit="10" cx="25.002" cy="4.219" r="2.625"/>
<path fill="none" stroke="#FFFFFF" stroke-miterlimit="10" d="M30.85,9.153L32.2,6.532c0.252-0.489,0.858-0.683,1.347-0.431
	l3.214,1.654c0.488,0.252,0.683,0.858,0.431,1.347l-1.351,2.622"/>
<path fill="none" stroke="#FFFFFF" stroke-miterlimit="10" d="M19.163,9.153l-1.351-2.622c-0.252-0.489-0.858-0.683-1.347-0.431
	l-3.212,1.654c-0.489,0.252-0.683,0.858-0.431,1.347l1.351,2.622"/>
<path fill="#FFFFFF" d="M26.098,12.189v2.35c0,0.6-0.5,1.09-1.1,1.09c-0.6,0-1.09-0.49-1.09-1.09v-2.35c0-0.6,0.49-1.09,1.09-1.09
	c0.6,0,1.09,0.49,1.09,1.09H26.098z"/>
<path fill="#FFFFFF" d="M26.099,41.042v2.351c0,0.601-0.5,1.091-1.101,1.091c-0.6,0-1.09-0.49-1.09-1.091v-2.351
	c0-0.6,0.49-1.09,1.09-1.09c0.601,0,1.091,0.49,1.091,1.09H26.099z"/>
<path fill="#FFFFFF" d="M38.187,26.678h2.351c0.601,0,1.091,0.5,1.091,1.1c0,0.601-0.49,1.091-1.091,1.091h-2.351
	c-0.6,0-1.09-0.49-1.09-1.091c0-0.6,0.49-1.09,1.09-1.09V26.678z"/>
<path fill="#FFFFFF" d="M9.478,26.678h2.351c0.601,0,1.091,0.5,1.091,1.1c0,0.601-0.49,1.091-1.091,1.091H9.478
	c-0.6,0-1.09-0.49-1.09-1.091c0-0.6,0.49-1.09,1.09-1.09V26.678z"/>
<circle fill="#FFFFFF" cx="25.001" cy="27.772" r="2.75"/>
<path fill="#FFFFFF" d="M26.771,31.865c-0.399,0.17-0.879-0.05-1.06-0.48l-1.44-3.409l-0.42-1l-1.64-3.88l-0.44-1.03l-0.55-1.31
	l-0.48-1.12l-0.47-1.13l-0.37-0.87c-0.04-0.09-0.06-0.18-0.07-0.27c-0.04-0.36,0.13-0.69,0.46-0.83c0.32-0.14,0.69-0.03,0.92,0.25
	c0.05,0.06,0.1,0.14,0.14,0.23l0.37,0.88l0.48,1.12l0.48,1.14l0.55,1.3l0.44,1.04l2.16,5.11l0.43,1l0.91,2.16
	C27.351,31.195,27.181,31.695,26.771,31.865z"/>
<path fill="#FFFFFF" d="M21.221,20.755c-1.68,0.91-3,2.41-3.68,4.23l-1.17-0.37c0.79-2.16,2.36-3.93,4.37-4.98L21.221,20.755z"/>
<path fill="#FFFFFF" d="M22.211,23.095c-1.02,0.61-1.82,1.54-2.26,2.65l-1.06-0.33c0.53-1.43,1.57-2.61,2.88-3.35L22.211,23.095z"/>
</svg>
