<?xml version="1.0" encoding="utf-8"?>
<!-- Generator: Adobe Illustrator 16.2.0, SVG Export Plug-In . SVG Version: 6.00 Build 0)  -->
<svg version="1.2" baseProfile="tiny" id="Слой_1"
	 xmlns="http://www.w3.org/2000/svg" xmlns:xlink="http://www.w3.org/1999/xlink" x="0px" y="0px" width="50px" height="50px"
	 viewBox="0 0 50 50" xml:space="preserve">
<path fill="none" stroke="#010202" stroke-width="2" stroke-miterlimit="10" d="M3.083,16.933"/>
<polyline fill="none" stroke="#FFFFFF" stroke-width="2" stroke-miterlimit="10" points="27.612,43 10.75,43 10.75,11.5 17.25,5 
	39.25,5 39.25,43 33.727,43 "/>
<polyline fill="none" stroke="#FFFFFF" stroke-width="2" stroke-miterlimit="10" points="10.75,11.5 17.25,11.5 17.25,10.833 
	17.25,5 "/>
<path fill="#FFFFFF" d="M34.167,15.933c0,0.55-0.45,1-1,1H16.833c-0.55,0-1-0.45-1-1v-0.667c0-0.55,0.45-1,1-1h16.334
	c0.55,0,1,0.45,1,1V15.933z"/>
<path fill="#FFFFFF" d="M34.167,21.268c0,0.55-0.45,1-1,1H16.833c-0.55,0-1-0.45-1-1V20.6c0-0.55,0.45-1,1-1h16.334
	c0.55,0,1,0.45,1,1V21.268z"/>
<path fill="#FFFFFF" d="M34.167,26.602c0,0.55-0.45,1-1,1H16.833c-0.55,0-1-0.45-1-1v-0.667c0-0.55,0.45-1,1-1h16.334
	c0.55,0,1,0.45,1,1V26.602z"/>
<circle fill="none" stroke="#FFFFFF" stroke-miterlimit="10" cx="30.67" cy="34.613" r="4.313"/>
<path fill="none" stroke="#FFFFFF" stroke-miterlimit="10" d="M33.727,37.62v8.511c0,0.55-0.385,0.766-0.854,0.48l-1.371-0.836
	c-0.47-0.285-1.237-0.283-1.705,0.006l-1.333,0.824c-0.468,0.289-0.851,0.075-0.851-0.475V37.62"/>
<path fill="#FFFFFF" d="M21.744,33.194c0,0.55-0.45,1-1,1h-5.238c-0.55,0-1-0.45-1-1v-0.668c0-0.55,0.45-1,1-1h5.238
	c0.55,0,1,0.45,1,1V33.194z"/>
<path fill="#FFFFFF" d="M21.744,36.699c0,0.55-0.45,1-1,1h-5.238c-0.55,0-1-0.45-1-1v-0.668c0-0.55,0.45-1,1-1h5.238
	c0.55,0,1,0.45,1,1V36.699z"/>
</svg>
