<?xml version="1.0" encoding="utf-8"?>
<!-- Generator: Adobe Illustrator 16.2.0, SVG Export Plug-In . SVG Version: 6.00 Build 0)  -->
<svg version="1.2" baseProfile="tiny" id="Слой_1"
	 xmlns="http://www.w3.org/2000/svg" xmlns:xlink="http://www.w3.org/1999/xlink" x="0px" y="0px" width="50px" height="50px"
	 viewBox="0 0 50 50" xml:space="preserve">
<path fill="none" stroke="#000000" stroke-width="2" stroke-miterlimit="10" d="M10.771,9.508"/>
<path fill="#CC3517" d="M22.647,13.07c0,4.81-3.891,8.7-8.69,8.7H1.497v-1.8h12.46c3.8,0,6.89-3.09,6.89-6.9s-3.09-6.9-6.89-6.9
	c-1.7,0-3.25,0.61-4.45,1.63l-1.28-1.28c1.53-1.33,3.53-2.14,5.73-2.14C18.756,4.38,22.647,8.27,22.647,13.07z"/>
<path fill="#CC3517" d="M36.096,17.81c0,3.71-2.988,6.71-6.689,6.71H1.497v-1.38h27.91c2.93,0,5.311-2.39,5.311-5.33
	s-2.381-5.32-5.311-5.32c-1.311,0-2.51,0.48-3.43,1.26l-0.989-0.99c1.179-1.02,2.72-1.65,4.419-1.65
	C33.107,11.11,36.096,14.11,36.096,17.81z"/>
<path fill="#CC3517" d="M30.336,36.02c0,5.591-4.53,10.11-10.12,10.11c-2.56,0-4.89-0.93-6.67-2.49l1.49-1.489
	c1.39,1.18,3.2,1.89,5.18,1.89c4.42,0,8.02-3.58,8.02-8.021c0-4.449-3.6-8.05-8.02-8.05H1.497v-2.1h18.72
	C25.806,25.87,30.336,30.4,30.336,36.02z"/>
<circle fill="#CC3517" cx="33.834" cy="27.37" r="1.5"/>
<circle fill="#CC3517" cx="38.251" cy="37.5" r="1.5"/>
<circle fill="#CC3517" cx="44.084" cy="31.37" r="1.5"/>
<circle fill="#CC3517" cx="40.168" cy="23.02" r="1.5"/>
<circle fill="#CC3517" cx="31.752" cy="7.38" r="1.5"/>
<circle fill="#CC3517" cx="41.668" cy="14.954" r="1.5"/>
<circle fill="#CC3517" cx="38.668" cy="30.828" r="0.958"/>
<circle fill="#CC3517" cx="32.71" cy="42.333" r="0.958"/>
<circle fill="#CC3517" cx="25" cy="4.922" r="0.958"/>
<circle fill="#CC3517" cx="47.251" cy="25.87" r="0.958"/>
<circle fill="#CC3517" cx="45.584" cy="18.773" r="0.958"/>
<circle fill="#CC3517" cx="38.251" cy="10.466" r="0.958"/>
<circle fill="#CC3517" cx="42.584" cy="40.911" r="0.958"/>
</svg>
